<svg width="26" height="26" class="h-full w-auto fill-black" viewBox="0 0 26 26" fill="none" xmlns="http://www.w3.org/2000/svg"><path id="wheel" fill-rule="evenodd" clip-rule="evenodd" d="M13 26C20.1797 26 26 20.1797 26 13C26 5.8203 20.1797 0 13 0C5.8203 0 0 5.8203 0 13C0 20.1797 5.8203 26 13 26ZM14 2.79816C19.1916 3.30082 23.25 7.67647 23.25 13C23.25 14.5104 22.9233 15.9445 22.3368 17.2354L16.8551 14.0706C16.9495 13.7298 17 13.3708 17 13C17 11.1362 15.7252 9.57006 14 9.12602V2.79816ZM13 17C14.1178 17 15.1286 16.5415 15.8544 15.8022L21.3353 18.9667C19.4754 21.5603 16.4351 23.25 13 23.25C9.56509 23.25 6.5248 21.5604 4.6649 18.967L10.1459 15.8025C10.8717 16.5416 11.8823 17 13 17ZM9.14499 14.071C9.0505 13.7301 9 13.371 9 13C9 11.1362 10.2748 9.57006 12 9.12602V2.79816C6.80837 3.30082 2.75 7.67647 2.75 13C2.75 14.5105 3.07674 15.9447 3.6634 17.2358L9.14499 14.071Z"></path></svg>